<svg xmlns="http://www.w3.org/2000/svg" viewBox="0 0 260.95 204.73"><defs><style>.cls-1{fill:#455a64 ;}</style></defs><g id="레이어_2"><g><path class="cls-1" d="M196.47,77.15a2.2,2.2,0,0,1-.36,0c-20.75-3.69-20.54-22.57-20.54-22.76a2,2,0,1,1,4.05.09h0c0,.63-.08,15.62,17.2,18.69a2,2,0,0,1-.35,4Z"/><path class="cls-1" d="M167.38,62.85a2,2,0,0,1-.17-4l11.07-.92a2,2,0,0,1,.33,4l-11.06.91Z"/><path class="cls-1" d="M172.72,77.42a2,2,0,0,1-1.25-3.6l9.65-7.63a2,2,0,0,1,2.51,3.17L174,77A2.07,2.07,0,0,1,172.72,77.42Z"/><path class="cls-1" d="M186.86,86.83a1.88,1.88,0,0,1-.57-.09,2,2,0,0,1-1.37-2.5l3.21-11A2,2,0,0,1,192,74.42l-3.21,11A2,2,0,0,1,186.86,86.83Z"/><path class="cls-1" d="M241.16,19.82a67.66,67.66,0,0,0-95.49-.2l-2.36,2.13c-5.39,4.35-14,8.83-26.79-1.17-.81-.63-1.65-1.41-2.43-2.15a67.67,67.67,0,0,0-94.27,97.09l74.06,74.06a51.33,51.33,0,0,0,16.57,11.11l.34.15c.41.17.82.32,1.23.47l1.26.48.36.12a52,52,0,0,0,16.89,2.82,51.38,51.38,0,0,0,36.57-15.15l74.06-74.06A67.74,67.74,0,0,0,241.16,19.82Zm-14.29,81.4L205.5,122.59a10.55,10.55,0,0,0-.79.71l-52,52a31.41,31.41,0,0,1-44.46,0l-52-52a10.69,10.69,0,0,0-.8-.71L34.11,101.22a47.45,47.45,0,0,1,66.1-68.08c1.09,1,2.4,2.23,3.87,3.37a50.9,50.9,0,0,0,14.71,8.18L107.85,55.63,96,43.88l-.21-.19A35.22,35.22,0,0,0,47.49,95c5.26,5.37,17.82,13.26,32.72,9.84a33.41,33.41,0,0,0,16.14-9.1L140,52c7.59-7,19.23-17.44,19.35-17.55l.39-.37a47.45,47.45,0,1,1,67.11,67.11ZM84.4,54.44a4.52,4.52,0,1,1-4.52-4.51A4.52,4.52,0,0,1,84.4,54.44ZM67.23,74.19a4.52,4.52,0,1,1-4.51-4.52A4.52,4.52,0,0,1,67.23,74.19Z"/></g></g></svg>
