<?xml version="1.0" encoding="iso-8859-1"?>
<!-- Generator: Adobe Illustrator 19.0.0, SVG Export Plug-In . SVG Version: 6.00 Build 0)  -->
<svg version="1.1" id="Capa_1" xmlns="http://www.w3.org/2000/svg" xmlns:xlink="http://www.w3.org/1999/xlink" x="0px" y="0px"
	 viewBox="0 0 512 512" style="enable-background:new 0 0 512 512;" xml:space="preserve">
<g>
	<path style="fill:#FD8724;" d="M300.109,184.455v-83.787c0,0-235.862,0-243.101,0h-0.013v58.438
		c0,13.991,11.344,25.349,25.349,25.349H300.109z"/>
	<path style="fill:#FD8724;" d="M211.891,418.578v-83.787c0,0,235.862,0,243.101,0h0.013v58.438
		c0,13.991-11.344,25.349-25.349,25.349H211.891z"/>
</g>
<path style="fill:#FEDFC5;" d="M408.117,333.222c0,6.758-1.628,15.432-4.389,25.301c-2.019,7.222-4.656,15.071-7.706,23.292
	c-17.647,47.419-49.377,106.871-59.163,124.817c-1.803,3.317-5.264,5.367-9.045,5.367H141.825c-3.781,0-7.242-2.05-9.045-5.367
	c-5.954-10.93-20.058-37.251-34.151-66.879c-13.063-27.454-26.125-57.732-32.718-81.23c-2.761-9.869-4.389-18.543-4.389-25.301
	c0-17.204,4.481-33.347,12.331-47.347c4.759-8.478,10.755-16.174,17.75-22.839c2.843-2.709,5.563-5.532,8.138-8.447
	c23.385-26.414,35.984-60.956,35.984-96.528V10.302C135.726,4.615,140.342,0,146.028,0h177.583c5.687,0,10.302,4.615,10.302,10.302
	v147.759c0,35.552,12.589,70.073,35.953,96.487c2.586,2.936,5.316,5.769,8.169,8.489c9.272,8.829,16.792,19.47,21.994,31.359
	c0.773,1.751,1.494,3.544,2.143,5.347C406.025,310.177,408.117,321.458,408.117,333.222z"/>
<g>
	<path style="fill:#FECBAA;" d="M408.117,333.222c0,6.758-1.628,15.432-4.389,25.301c-2.019,7.222-4.656,15.071-7.706,23.292
		H222.189c-11.929,0-21.634-9.704-21.634-21.634v-38.807c0-11.929,9.704-21.634,21.634-21.634h179.983
		C406.025,310.177,408.117,321.458,408.117,333.222z"/>
	<rect x="227.09" y="413.62" style="fill:#FECBAA;" width="15.453" height="98.38"/>
	<path style="fill:#FECBAA;" d="M230.05,285.875H73.854c4.759-8.478,10.755-16.174,17.75-22.839
		c2.843-2.709,5.563-5.532,8.138-8.447c23.385-26.414,35.984-60.956,35.984-96.528V17.256h42.825
		C178.551,17.256,148.758,225.764,230.05,285.875z"/>
</g>
<path style="fill:#FD6096;" d="M408.117,333.222c0,6.758-1.628,15.432-4.389,25.301h-13.99c-31.802,0-61.615,8.478-87.308,23.292
	c-23.777,13.691-44.009,32.822-59.06,55.681c-4.028,6.109-13.083,6.109-17.101,0c-31.307-47.574-85.165-78.974-146.368-78.974
	h-13.99c-2.761-9.869-4.389-18.543-4.389-25.301c0-27.619,11.548-52.529,30.081-70.186c2.843-2.709,5.563-5.532,8.138-8.447
	c39.909,11.95,89.317,23.045,135.077,23.045c45.616,0,95.065-11.126,135.046-23.086c2.586,2.936,5.316,5.769,8.169,8.489
	c9.272,8.829,16.792,19.47,21.994,31.359c0.773,1.751,1.494,3.544,2.143,5.347C406.025,310.177,408.117,321.458,408.117,333.222z"/>
<path style="fill:#FC3E81;" d="M408.117,333.222c0,6.758-1.628,15.432-4.389,25.301h-13.99c-31.802,0-61.615,8.478-87.308,23.292
	h-80.241c-11.929,0-21.634-9.704-21.634-21.634v-38.807c0-11.929,9.704-21.634,21.634-21.634h179.983
	C406.025,310.177,408.117,321.458,408.117,333.222z"/>
<path style="fill:#FDB659;" d="M211.891,321.376v38.805c0,5.69,4.612,10.302,10.302,10.302h207.464
	c13.672,0,24.817,10.826,25.335,24.378h0.013v-58.438c0-13.991-11.344-25.349-25.349-25.349H222.192
	C216.503,311.074,211.891,315.686,211.891,321.376z"/>
<g>
	<path style="fill:#43A3F9;" d="M408.962,370.563c-4.267,0-7.726-3.459-7.726-7.726v-18.62c0-4.268,3.459-7.726,7.726-7.726
		s7.726,3.459,7.726,7.726v18.62C416.689,367.105,413.229,370.563,408.962,370.563z"/>
	<path style="fill:#43A3F9;" d="M377.043,370.563c-4.267,0-7.726-3.459-7.726-7.726v-18.62c0-4.268,3.459-7.726,7.726-7.726
		s7.726,3.459,7.726,7.726v18.62C384.77,367.105,381.31,370.563,377.043,370.563z"/>
	<path style="fill:#43A3F9;" d="M345.125,370.563c-4.267,0-7.726-3.459-7.726-7.726v-18.62c0-4.268,3.459-7.726,7.726-7.726
		s7.726,3.459,7.726,7.726v18.62C352.851,367.105,349.392,370.563,345.125,370.563z"/>
	<path style="fill:#43A3F9;" d="M313.206,370.563c-4.267,0-7.726-3.459-7.726-7.726v-18.62c0-4.268,3.459-7.726,7.726-7.726
		s7.726,3.459,7.726,7.726v18.62C320.932,367.105,317.473,370.563,313.206,370.563z"/>
	<path style="fill:#43A3F9;" d="M281.287,370.563c-4.267,0-7.726-3.459-7.726-7.726v-18.62c0-4.268,3.459-7.726,7.726-7.726
		s7.726,3.459,7.726,7.726v18.62C289.014,367.105,285.554,370.563,281.287,370.563z"/>
	<path style="fill:#43A3F9;" d="M249.368,370.563c-4.267,0-7.726-3.459-7.726-7.726v-18.62c0-4.268,3.459-7.726,7.726-7.726
		s7.726,3.459,7.726,7.726v18.62C257.095,367.105,253.635,370.563,249.368,370.563z"/>
</g>
<path style="fill:#FECBAA;" d="M311.444,87.256v38.807c0,11.919-9.704,21.634-21.634,21.634H135.726V65.622H289.81
	C301.74,65.622,311.444,75.327,311.444,87.256z"/>
<path style="fill:#FDB659;" d="M300.109,87.253v38.805c0,5.69-4.612,10.302-10.302,10.302H82.344
	c-13.672,0-24.817,10.826-25.335,24.378h-0.013V102.3c0-13.991,11.344-25.349,25.349-25.349h207.464
	C295.497,76.951,300.109,81.564,300.109,87.253z"/>
<g>
	<path style="fill:#43A3F9;" d="M103.038,136.441c-4.267,0-7.726-3.459-7.726-7.726v-18.62c0-4.268,3.459-7.726,7.726-7.726
		s7.726,3.459,7.726,7.726v18.62C110.764,132.982,107.305,136.441,103.038,136.441z"/>
	<path style="fill:#43A3F9;" d="M134.957,136.441c-4.267,0-7.726-3.459-7.726-7.726v-18.62c0-4.268,3.459-7.726,7.726-7.726
		s7.726,3.459,7.726,7.726v18.62C142.683,132.982,139.224,136.441,134.957,136.441z"/>
	<path style="fill:#43A3F9;" d="M166.875,136.441c-4.267,0-7.726-3.459-7.726-7.726v-18.62c0-4.268,3.459-7.726,7.726-7.726
		s7.726,3.459,7.726,7.726v18.62C174.602,132.982,171.142,136.441,166.875,136.441z"/>
	<path style="fill:#43A3F9;" d="M198.794,136.441c-4.267,0-7.726-3.459-7.726-7.726v-18.62c0-4.268,3.459-7.726,7.726-7.726
		s7.726,3.459,7.726,7.726v18.62C206.521,132.982,203.061,136.441,198.794,136.441z"/>
	<path style="fill:#43A3F9;" d="M230.713,136.441c-4.267,0-7.726-3.459-7.726-7.726v-18.62c0-4.268,3.459-7.726,7.726-7.726
		s7.726,3.459,7.726,7.726v18.62C238.439,132.982,234.98,136.441,230.713,136.441z"/>
	<path style="fill:#43A3F9;" d="M262.632,136.441c-4.267,0-7.726-3.459-7.726-7.726v-18.62c0-4.268,3.459-7.726,7.726-7.726
		s7.726,3.459,7.726,7.726v18.62C270.358,132.982,266.899,136.441,262.632,136.441z"/>
</g>
<path style="fill:#FFAE85;" d="M235.21,230.94c-4.267,0-7.726-3.459-7.726-7.726v-9.272c0-4.268,3.459-7.726,7.726-7.726
	s7.726,3.459,7.726,7.726v9.272C242.936,227.481,239.477,230.94,235.21,230.94z"/>
<path style="fill:#FD6096;" d="M92.837,0c-7.8,0-12.859,8.381-9.069,15.199c5.89,10.597,17.196,17.767,30.18,17.767h241.277
	c12.984,0,24.29-7.17,30.18-17.767C389.193,8.381,384.135,0,376.335,0H92.837z"/>
<g>
</g>
<g>
</g>
<g>
</g>
<g>
</g>
<g>
</g>
<g>
</g>
<g>
</g>
<g>
</g>
<g>
</g>
<g>
</g>
<g>
</g>
<g>
</g>
<g>
</g>
<g>
</g>
<g>
</g>
</svg>
