<svg height="512pt" viewBox="0 -46 512.00035 512" width="512pt" xmlns="http://www.w3.org/2000/svg"><path d="m377.0625 61.449219c-13.792969-52.679688-74.058594-77.644531-121.0625-50.148438-47.003906-27.496093-107.269531-2.53125-121.0625 50.148438-52.679688 13.792969-77.644531 74.058593-50.144531 121.0625h342.417969c27.496093-47.003907 2.535156-107.269531-50.148438-121.0625zm0 0" fill="#94dc7e"/><path d="m408.152344 77.164062c-31.382813 3.878907-60.5 17.242188-83.792969 38.390626-19.949219-13.496094-43.621094-20.875-68.359375-20.875-24.734375 0-48.410156 7.378906-68.355469 20.875-23.296875-21.148438-52.410156-34.511719-83.792969-38.390626-30.171874 24.558594-40.363281 68.929688-19.058593 105.347657h342.417969c21.304687-36.417969 11.109374-80.789063-19.058594-105.347657zm0 0" fill="#80c56e"/><path d="m49.382812 112.089844c46.699219-14.09375 99.320313.691406 131.417969 41.269531 32.097657 40.578125 34.371094 95.1875 9.902344 137.386719-46.699219 14.09375-99.320313-.6875-131.417969-41.265625s-34.371094-95.191407-9.902344-137.390625zm0 0" fill="#94dc7e"/><path d="m190.707031 298.472656c-2.277343 0-4.539062-1.003906-6.0625-2.933594l-103.925781-131.382812c-2.648438-3.347656-2.082031-8.203125 1.265625-10.851562 3.347656-2.648438 8.203125-2.082032 10.851563 1.265624l103.925781 131.382813c2.648437 3.347656 2.082031 8.207031-1.265625 10.851563-1.417969 1.125-3.109375 1.667968-4.789063 1.667968zm0 0" fill="#b3ee9b"/><path d="m347.269531 216.851562c0 50.40625-40.863281 91.269532-91.269531 91.269532s-91.265625-40.863282-91.265625-91.269532 40.859375-91.265624 91.265625-91.265624 91.269531 40.859374 91.269531 91.265624zm0 0" fill="#fd747f"/><path d="m462.617188 112.089844c-46.699219-14.09375-99.320313.691406-131.417969 41.269531-32.097657 40.578125-34.367188 95.1875-9.902344 137.386719 46.699219 14.09375 99.320313-.6875 131.417969-41.265625 32.101562-40.578125 34.371094-95.191407 9.902344-137.390625zm0 0" fill="#94dc7e"/><path d="m321.292969 298.472656c-1.679688 0-3.371094-.542968-4.789063-1.667968-3.347656-2.644532-3.914062-7.503907-1.265625-10.851563l103.925781-131.382813c2.648438-3.347656 7.507813-3.914062 10.855469-1.265624 3.34375 2.648437 3.910157 7.503906 1.265625 10.851562l-103.925781 131.382812c-1.527344 1.929688-3.785156 2.933594-6.066406 2.933594zm0 0" fill="#b3ee9b"/><path d="m256 241.488281-251.664062 32.664063c6.632812 33.238281 20.601562 73.921875 49.730468 108.980468 19.367188 23.304688 48.128906 36.753907 78.433594 36.753907h247c30.304688 0 59.070312-13.449219 78.4375-36.753907 29.125-35.058593 43.097656-75.742187 49.730469-108.980468zm0 0" fill="#bfebfe"/><path d="m95.273438 383.132812c-29.128907-35.058593-43.097657-75.742187-49.730469-108.980468l231.0625-29.988282-20.605469-2.675781-251.664062 32.664063c6.632812 33.238281 20.601562 73.921875 49.730468 108.980468 19.367188 23.304688 48.128906 36.753907 78.433594 36.753907h41.207031c-30.304687 0-59.066406-13.449219-78.433593-36.753907zm0 0" fill="#94d9fd"/><path d="m511.796875 247.207031c-.875 8.121094-2.191406 17.21875-4.132813 26.945313h-503.328124c-1.941407-9.726563-3.257813-18.824219-4.132813-26.945313-2.210937-20.5 13.871094-38.382812 34.492187-38.382812h442.609376c20.621093 0 36.703124 17.878906 34.492187 38.382812zm0 0" fill="#94d9fd"/><path d="m75.90625 208.824219h-41.207031c-20.625 0-36.707031 17.878906-34.496094 38.382812.875 8.121094 2.191406 17.214844 4.132813 26.945313h41.207031c-1.941407-9.730469-3.257813-18.824219-4.132813-26.945313-2.210937-20.503906 13.871094-38.382812 34.496094-38.382812zm0 0" fill="#6fb8f2"/><g fill="#57565b"><path d="m173.847656 351.609375c-4.265625 0-7.726562-3.460937-7.726562-7.726563v-14.871093c0-4.265625 3.460937-7.722657 7.726562-7.722657s7.726563 3.457032 7.726563 7.722657v14.871093c0 4.265626-3.460938 7.726563-7.726563 7.726563zm0 0"/><path d="m338.152344 351.609375c-4.265625 0-7.726563-3.460937-7.726563-7.726563v-14.871093c0-4.265625 3.460938-7.722657 7.726563-7.722657 4.269531 0 7.726562 3.457032 7.726562 7.722657v14.871093c0 4.265626-3.457031 7.726563-7.726562 7.726563zm0 0"/><path d="m256 359.542969c-10.132812 0-19.640625-4.230469-26.09375-11.609375-2.808594-3.214844-2.480469-8.09375.730469-10.902344 3.214843-2.808594 8.09375-2.484375 10.902343.730469 3.519532 4.023437 8.789063 6.328125 14.460938 6.328125s10.945312-2.304688 14.460938-6.328125c2.804687-3.210938 7.6875-3.539063 10.902343-.730469 3.210938 2.804688 3.539063 7.6875.730469 10.902344-6.449219 7.378906-15.960938 11.609375-26.09375 11.609375zm0 0"/></g></svg>