<svg enable-background="new 0 0 512 512" height="512" viewBox="0 0 512 512" width="512" xmlns="http://www.w3.org/2000/svg"><g id="_x33_9_x2C__mother_x2C__working_mother_x2C__baby_x2C__mothers_day_x2C__love"><g id="XMLID_7373_"><path id="XMLID_7391_" d="m466 55.999c11.05 0 20 8.95 20 20s-8.95 20-20 20-20-8.95-20-20 8.95-20 20-20z" fill="#2de7a8"/><path id="XMLID_7390_" d="m456 145.999c5.52 0 10 4.48 10 10s-4.48 10-10 10-10-4.48-10-10 4.48-10 10-10z" fill="#cc9aff"/><path id="XMLID_7389_" d="m204.44 349.389 178.7 16.61h52.19c2.72 0 5.38.27 7.96.78l.16-.78c20.913-29.982 15.161-71.102-13.24-94.27 3.71-7.79 5.79-16.52 5.79-25.73 0-26.12-16.7-48.33-40-56.57v-43.43c0-66.27-53.73-120-120-120-66.264 0-120 53.718-120 120v43.43c-25.859 9.145-42.754 35.028-39.64 63.18z" fill="#516893"/><path id="XMLID_7388_" d="m286 485.999h-123.04l41.48-136.61 41.56-19.39h60l77.14 36z" fill="#cc9aff"/><path id="XMLID_7387_" d="m306 289.259v40.74c-18.75 10-41.25 10-60 0v-40.74z" fill="#ffeee5"/><path id="XMLID_7386_" d="m165.92 285.639c5.493 9.09 52.179 86.354 56.89 94.15 19.919 32.965 9.509 76.045-23.71 96.11-15.112 9.132-32.858 12.159-49.93 8.73l-55.97-48.63-47.1-77.96z" fill="#2de7a8"/><path id="XMLID_7385_" d="m165.92 285.639c20 33.09 9.38 76.12-23.71 96.11-33.09 20-76.12 9.38-96.11-23.71-19.944-33.006-9.46-76.074 23.71-96.11 33.296-20.12 76.251-9.17 96.11 23.71z" fill="#ffdecf"/><path id="XMLID_7384_" d="m116 435.999 9.223 25-9.223 25h-35c-13.81 0-25-11.19-25-25 0-13.824 11.2-25 25-25z" fill="#ffdecf"/><path id="XMLID_7383_" d="m106 35.999c5.52 0 10 4.48 10 10s-4.48 10-10 10-10-4.48-10-10 4.48-10 10-10z" fill="#ffd92c"/><circle id="XMLID_7382_" cx="66" cy="145.999" fill="#2de7a8" r="30"/><path id="XMLID_7381_" d="m36 215.999c5.52 0 10 4.48 10 10s-4.48 10-10 10-10-4.48-10-10 4.48-10 10-10z" fill="#ffd92c"/><path id="XMLID_7380_" d="m98.82 350.966c-5.361-1.326-8.633-6.747-7.307-12.108 1.326-5.36 6.746-8.631 12.108-7.308 5.342 1.325 10.772-1.933 12.101-7.319 1.324-5.361 6.746-8.635 12.106-7.311 5.362 1.324 8.635 6.744 7.311 12.105-3.977 16.101-20.216 25.918-36.319 21.941z" fill="#fdc0b5"/><path id="XMLID_7378_" d="m435.33 365.999c22.419 0 40.67 18.167 40.67 40.67v79.33c-13.11 0-135.609 0-190 0v-79.33c0-22.46 18.21-40.67 40.67-40.67z" fill="#ffd92c"/><path id="XMLID_7377_" d="m381 415.999c8.28 0 15 6.72 15 15s-6.72 15-15 15-15-6.72-15-15 6.72-15 15-15z" fill="#fff"/><path id="XMLID_7376_" d="m276 295.999c-38.584 0-70-31.263-70-70v-70h40c27.61 0 50-22.39 50-50 0 27.61 22.39 50 50 50v70c0 38.79-31.469 70-70 70z" fill="#ffdecf"/><path id="XMLID_7375_" d="m254.789 243.07c-3.905-3.905-3.905-10.237 0-14.143 3.905-3.904 10.237-3.904 14.143 0 3.897 3.898 10.24 3.898 14.138 0 3.906-3.903 10.237-3.903 14.142 0 3.905 3.906 3.905 10.237 0 14.143-11.695 11.693-30.725 11.698-42.423 0z" fill="#fdc0b5"/><path id="XMLID_7374_" d="m141 435.999c13.81 0 25 11.19 25 25 0 13.921-11.301 25-25 25-8.69 0-16.337 0-25 0v-50z" fill="#ffeee5"/></g></g></svg>