<svg height="511pt" viewBox="0 -44 511.96236 511" width="511pt" xmlns="http://www.w3.org/2000/svg"><path d="m234.621094 348.5625c-40.671875-70.449219-16.449219-160.855469 54-201.527344 23.175781-13.382812 48.503906-19.738281 73.515625-19.738281 16.058593 0 31.980469 2.625 47.121093 7.691406-3.820312-9.6875-8.390624-19.214843-13.753906-28.503906-58.523437-101.367187-188.140625-136.097656-289.503906-77.574219-101.363281 58.523438-136.09375 188.136719-77.570312 289.5 54.480468 94.367188 170.570312 130.964844 268.125 88.355469-25.085938-12.46875-46.90625-32.175781-61.933594-58.203125zm0 0" fill="#ff646f"/><path d="m59.332031 318.410156c-58.519531-101.363281-23.792969-230.976562 77.574219-289.5 28.597656-16.511718 59.441406-25.597656 90.308594-27.859375-40.875-2.984375-83.046875 5.824219-121.214844 27.859375-101.363281 58.523438-136.09375 188.136719-77.570312 289.5 42 72.75 120.613281 111.152344 199.125 105.414063-67.65625-4.957031-131.746094-42.234375-168.222657-105.414063zm0 0" fill="#ff4755"/><path d="m1.601562 188.933594c57.914063-6.375 265.125-126.722656 294.597657-170.964844-20.851563-9.011719-43.054688-14.636719-65.699219-16.644531-19.878906 37.796875-163.960938 121.792969-210.582031 122.578125l-.386719-.273438c-9.5 20.632813-15.640625 42.683594-18.183594 65.242188.160156.039062.253906.0625.253906.0625zm0 0" fill="#ff8088"/><path d="m19.917969 123.902344-.386719-.273438c-.710938 1.066406-14.117188 29.148438-18.183594 65.242188.160156.039062.253906.0625.253906.0625 8.027344-.882813 18.921876-3.957032 31.8125-8.714844 3.460938-22.402344 10.480469-44.179688 20.832032-64.429688-13.824219 4.988282-25.734375 7.96875-34.328125 8.113282zm0 0" fill="#ff646f"/><path d="m342.949219 45.785156c-33.867188 47.476563-279.121094 189.558594-340.65625 197.207032l-.101563-.054688c2.328125 16.042969 6.535156 31.980469 12.703125 47.507812 61.746094-7.527343 324.613281-159.207031 363.246094-209.53125h.015625c-10.46875-13.261718-22.3125-25.003906-35.207031-35.128906zm0 0" fill="#ff8088"/><path d="m42.90625 282.726562c-5.554688-15.75-9.140625-31.871093-10.835938-48.039062-12.15625 4.46875-22.316406 7.378906-29.777343 8.304688l-.101563-.054688c2.617188 18.027344 8.136719 36.855469 12.703125 47.503906 6.972657-.847656 16.519531-3.542968 28.011719-7.714844zm0 0" fill="#ff646f"/><path d="m235.039062 349.261719c-55.761718 29.59375-102.257812 48.863281-122.011718 50.617187v.003906c22.382812 11.785157 46.691406 19.472657 71.695312 22.730469 20.746094-6.660156 49.390625-19.257812 81.390625-36.027343-12.054687-10.367188-22.617187-22.859376-31.074219-37.324219zm0 0" fill="#ff8088"/><path d="m195.308594 418.945312c-21.242188-4.898437-41.703125-13.054687-60.597656-24.238281-8.957032 2.917969-16.3125 4.695313-21.675782 5.171875 22.179688 11.695313 46.511719 19.441406 71.714844 22.726563 3.316406-1.066407 6.855469-2.300781 10.558594-3.660157zm0 0" fill="#ff646f"/><path d="m409.242188 134.984375c-1.867188-4.738281-3.898438-9.445313-6.132813-14.097656h-.003906c-2.054688 2.949219-4.996094 6.296875-8.699219 9.980469 5.011719 1.117187 9.964844 2.488281 14.835938 4.117187zm0 0" fill="#ff8088"/><path d="m217.019531 250.035156c-76.238281 43.277344-152.59375 80.035156-180.03125 81.996094 8.964844 13.152344 19.210938 25 30.457031 35.488281l.125-.367187c18.640626 3.242187 82.238282-25.617188 150.246094-62.910156-3.660156-18.046876-3.839844-36.429688-.796875-54.207032zm0 0" fill="#ff8088"/><path d="m63.53125 325.34375c-11.089844 3.878906-20.144531 6.230469-26.542969 6.6875 9.910157 14.457031 19.210938 24.777344 30.457031 35.488281l.125-.367187c5.289063.917968 14.199219-.746094 25.800782-4.453125-11.121094-11.078125-21.160156-23.546875-29.839844-37.355469zm0 0" fill="#ff646f"/><path d="m491.921875 199.996094c-41.308594-71.546875-132.792969-96.058594-204.339844-54.75s-96.058593 132.792968-54.75 204.339844c41.308594 71.542968 132.792969 96.054687 204.339844 54.746093 71.542969-41.304687 96.058594-132.792969 54.75-204.335937zm0 0" fill="#ffd500"/><path d="m263.742188 349.59375c-41.308594-71.546875-16.792969-163.035156 54.753906-204.34375 18.78125-10.84375 38.9375-17.144531 59.199218-19.257812-30.253906-3.136719-61.746093 2.886718-90.101562 19.257812-71.546875 41.308594-96.0625 132.792969-54.753906 204.34375 30.460937 52.765625 88.21875 79.941406 145.140625 74.007812-46.082031-4.777343-89.300781-30.820312-114.238281-74.007812zm0 0" fill="#fbc700"/><path d="m213.902344 258.203125c40.878906-4.5 187.132812-89.449219 207.9375-120.675781-14.71875-6.363282-30.386719-10.332032-46.371094-11.75-14.03125 26.679687-115.730469 85.96875-148.636719 86.519531l-.273437-.1875c-6.707032 14.5625-11.039063 30.125-12.835938 46.046875.113282.03125.179688.046875.179688.046875zm0 0" fill="#ffe55a"/><path d="m226.832031 212.296875-.273437-.1875c-5.882813 13.964844-10.160156 25.625-12.503906 43.339844-.117188.902343-.230469 1.800781-.332032 2.707031.113282.03125.179688.046875.179688.046875 7.585937-.835937 18.8125-4.445313 32.183594-9.964844 2.921874-16.148437 8.476562-31.777343 16.484374-46.199219-14.632812 6.199219-27.398437 10.121094-35.738281 10.257813zm0 0" fill="#ffd500"/><path d="m454.84375 157.160156c-23.910156 33.511719-197.019531 133.800782-240.453125 139.199219l-.070313-.039063c1.640626 11.324219 4.613282 22.574219 8.964844 33.53125 43.582032-5.3125 229.128906-112.375 256.394532-147.894531h.011718c-7.390625-9.363281-15.75-17.648437-24.847656-24.796875zm0 0" fill="#ffe55a"/><path d="m251.09375 321.320312c-3.691406-11.246093-5.972656-22.734374-6.914062-34.234374-12.496094 5.085937-22.820313 8.40625-29.789063 9.273437l-.070313-.039063c0 2.757813 3.925782 21.773438 8.964844 33.53125 6.464844-.789062 16.074219-3.828124 27.808594-8.53125zm0 0" fill="#ffd500"/><path d="m500.472656 332.316406c6.832032-16.433594 10.710938-34.007812 11.40625-51.847656-10.015625 14.261719-51.242187 44.269531-103.304687 74.328125s-98.667969 50.757813-116.023438 52.300781c15.796875 8.316406 32.957031 13.742188 50.605469 16.046875 19.847656-6.375 49.9375-20.4375 82.292969-39.117187 32.355469-18.683594 59.578125-37.707032 75.023437-51.710938zm0 0" fill="#ffe55a"/><path d="m354.269531 419.183594c-14.273437-3.855469-27.976562-9.808594-40.609375-17.734375-8.984375 3.25-16.1875 5.207031-21.082031 5.644531 15.460937 8.136719 32.316406 13.652344 50.621094 16.035156 3.402343-1.09375 7.109375-2.417968 11.070312-3.945312zm0 0" fill="#ffd500"/><path d="m238.878906 359.203125c6.328125 9.285156 13.558594 17.648437 21.5 25.050781l.085938-.257812c31.511718 5.480468 245.027344-118.984375 247.425781-144.03125-2.425781-10.113282-5.933594-20.097656-10.585937-29.792969h-.003907c-24.078125 34.484375-217.671875 146.121094-258.421875 149.03125zm0 0" fill="#ffe55a"/><path d="m238.878906 359.203125c6.21875 9.128906 13.6875 17.773437 21.5 25.050781l.085938-.257812c4.707031.816406 13.476562-1.265625 24.992187-5.476563-7.652343-7.96875-14.519531-16.917969-20.433593-26.78125-11.238282 4.371094-20.277344 7.046875-26.144532 7.464844zm0 0" fill="#ffd500"/></svg>