<svg height="512pt" viewBox="0 0 512.19661 512" width="512pt" xmlns="http://www.w3.org/2000/svg"><path d="m379.507812 372.785156-176-176c-6.246093-6.246094-16.375-6.246094-22.625 0l-176 176c-4.15625 4.019532-5.824218 9.96875-4.363281 15.5625 1.464844 5.59375 5.835938 9.960938 11.429688 11.425782 5.59375 1.464843 11.542969-.203126 15.558593-4.363282l4.6875-4.6875v105.375c0 8.835938 7.164063 16 16 16h288c8.835938 0 16-7.164062 16-16v-105.375l4.6875 4.6875c6.28125 6.0625 16.257813 5.976563 22.429688-.195312s6.257812-16.152344.195312-22.429688zm0 0" fill="#00d7df"/><path d="m512.195312 128.097656c0 70.691406-57.304687 128-128 128-70.691406 0-128-57.308594-128-128s57.308594-127.9999998 128-127.9999998c70.695313 0 128 57.3085938 128 127.9999998zm0 0" fill="#00d7df"/><path d="m112.195312 176.097656h-16v-16c0-8.835937-7.164062-16-16-16-8.835937 0-16 7.164063-16 16v16h-16c-8.835937 0-16 7.164063-16 16 0 8.835938 7.164063 16 16 16h16v16c0 8.835938 7.164063 16 16 16 8.835938 0 16-7.164062 16-16v-16h16c8.835938 0 16-7.164062 16-16 0-8.835937-7.164062-16-16-16zm0 0" fill="#007579"/><path d="m176.195312 64.097656h-16v-16c0-8.835937-7.164062-16-16-16-8.835937 0-16 7.164063-16 16v16h-16c-8.835937 0-16 7.164063-16 16 0 8.835938 7.164063 16 16 16h16v16c0 8.835938 7.164063 16 16 16 8.835938 0 16-7.164062 16-16v-16h16c8.835938 0 16-7.164062 16-16 0-8.835937-7.164062-16-16-16zm0 0" fill="#007579"/><path d="m368.195312 192.097656c-4.242187 0-8.3125-1.6875-11.3125-4.6875l-32-32c-6.0625-6.277344-5.976562-16.257812.195313-22.429687s16.152344-6.257813 22.429687-.195313l19.359376 19.359375 52.800781-66.039062c5.523437-6.898438 15.59375-8.015625 22.492187-2.492188 6.898438 5.523438 8.015625 15.59375 2.492188 22.492188l-64 80c-2.832032 3.550781-7.042969 5.730469-11.574219 5.992187-.296875 0-.585937 0-.882813 0zm0 0" fill="#fff"/><g fill="#007579"><path d="m64.195312 48.097656c-6.472656.019532-12.316406-3.875-14.789062-9.855468-2.472656-5.984376-1.085938-12.867188 3.511719-17.425782 6.320312-6 16.234375-6 22.558593 0 4.546876 4.578125 5.902344 11.433594 3.4375 17.394532-2.464843 5.960937-8.265624 9.859374-14.71875 9.886718zm0 0"/><path d="m240.195312 416.097656c0-8.835937-7.164062-16-16-16h-64c-8.835937 0-16 7.164063-16 16v96h96zm0 0"/></g></svg>