<svg enable-background="new 0 0 512 512" height="512" viewBox="0 0 512 512" width="512" xmlns="http://www.w3.org/2000/svg"><g id="_x32_6_x2C__ring_x2C__gift_x2C__mother_day_x2C__mom_x2C__surprise"><g id="XMLID_3127_"><path id="XMLID_4885_" d="m466 246c5.52 0 10 4.48 10 10s-4.48 10-10 10-10-4.48-10-10 4.48-10 10-10z" fill="#febf00"/><path id="XMLID_4884_" d="m456 86c11.05 0 20 8.95 20 20s-8.95 20-20 20-20-8.95-20-20 8.95-20 20-20z" fill="#21b4b1"/><path id="XMLID_4883_" d="m366 46c5.52 0 10 4.48 10 10s-4.48 10-10 10-10-4.48-10-10 4.48-10 10-10z" fill="#21b4b1"/><path id="XMLID_4877_" d="m256 278.46c51.5 0 93.26 41.75 93.26 93.26 0 51.5-41.76 93.26-93.26 93.26s-93.26-41.76-93.26-93.26c0-51.51 41.76-93.26 93.26-93.26zm52.17 93.26c0-28.81-23.36-52.17-52.17-52.17s-52.17 23.36-52.17 52.17 23.36 52.17 52.17 52.17 52.17-23.36 52.17-52.17z" fill="#febf00"/><path id="XMLID_3132_" d="m256 278.46c-82.81-47.54-44.94-115.45 0-84.78 44.94-30.67 82.81 37.24 0 84.78" fill="#ff8079"/><path id="XMLID_4875_" d="m256 231.37c24.96-17.04 46 20.68 0 47.09-46-26.41-24.96-64.13 0-47.09z" fill="#ff3379"/><path id="XMLID_4874_" d="m146 46c5.52 0 10 4.48 10 10s-4.48 10-10 10-10-4.48-10-10 4.48-10 10-10z" fill="#febf00"/><path id="XMLID_4873_" d="m76 266c5.52 0 10 4.48 10 10s-4.48 10-10 10-10-4.48-10-10 4.48-10 10-10z" fill="#21b4b1"/><circle id="XMLID_4871_" cx="56" cy="146" fill="#2de7a8" r="30"/><path id="XMLID_5296_" d="m486 466c-5.523 0-10-4.478-10-10v-82.38l-32.318 38.781c-3.993 4.792-11.366 4.799-15.364 0l-32.318-38.781v82.38c0 5.522-4.477 10-10 10s-10-4.478-10-10v-110c0-4.21 2.637-7.97 6.596-9.402 3.96-1.435 8.391-.232 11.086 3.001l42.318 50.781 42.318-50.781c2.695-3.234 7.128-4.436 11.086-3.001 3.959 1.432 6.596 5.192 6.596 9.402v110c0 5.522-4.477 10-10 10z" fill="#ff3379"/><path id="XMLID_5295_" d="m126 466c-5.523 0-10-4.478-10-10v-82.38l-32.318 38.781c-3.993 4.792-11.366 4.799-15.364 0l-32.318-38.781v82.38c0 5.522-4.477 10-10 10s-10-4.478-10-10v-110c0-4.21 2.637-7.97 6.596-9.402 3.959-1.435 8.391-.232 11.086 3.001l42.318 50.781 42.318-50.781c2.695-3.234 7.127-4.436 11.086-3.001 3.959 1.432 6.596 5.192 6.596 9.402v110c0 5.522-4.477 10-10 10z" fill="#ff3379"/><g fill="#ff9000"><path id="XMLID_5294_" d="m256 146c-5.523 0-10-4.478-10-10v-20c0-5.522 4.477-10 10-10s10 4.478 10 10v20c0 5.522-4.477 10-10 10z"/><path id="XMLID_5293_" d="m197.34 154.4-10-17.32c-2.761-4.783-1.123-10.898 3.66-13.66 4.782-2.762 10.899-1.122 13.66 3.66l10 17.32c2.761 4.783 1.123 10.898-3.66 13.66-4.764 2.751-10.887 1.143-13.66-3.66z"/><path id="XMLID_5292_" d="m164.4 194.66-17.32-10c-4.783-2.762-6.422-8.877-3.66-13.66 2.761-4.783 8.877-6.422 13.66-3.66l17.32 10c4.783 2.762 6.422 8.877 3.66 13.66-2.765 4.79-8.883 6.418-13.66 3.66z"/><path id="XMLID_5291_" d="m156 246h-20c-5.523 0-10-4.478-10-10s4.477-10 10-10h20c5.523 0 10 4.478 10 10s-4.477 10-10 10z"/><path id="XMLID_5290_" d="m376 246h-20c-5.523 0-10-4.478-10-10s4.477-10 10-10h20c5.523 0 10 4.478 10 10s-4.477 10-10 10z"/><path id="XMLID_5289_" d="m333.94 191c-2.761-4.783-1.123-10.898 3.66-13.66l17.32-10c4.782-2.763 10.899-1.122 13.66 3.66 2.761 4.783 1.123 10.898-3.66 13.66l-17.32 10c-4.766 2.752-10.888 1.141-13.66-3.66z"/><path id="XMLID_5288_" d="m301 158.061c-4.783-2.762-6.422-8.877-3.66-13.66l10-17.32c2.761-4.784 8.877-6.422 13.66-3.66s6.422 8.877 3.66 13.66l-10 17.32c-2.765 4.79-8.882 6.417-13.66 3.66z"/></g></g></g></svg>